# xmcd
#
# Track frame offsets:
#	150
#	25259
#	44965
#	61991
#	82697
#	100037
#	125428
#	147037
#	165223
#	178464
#
# Disc length: 2577 seconds
#
# Revision: 2
# Processed by: cddbd v1.5.2PL0 Copyright (c) Steve Scherf et al.
# Submitted via: audiograbber 1.83.01
#
DISCID=7e0a0f0a
DTITLE=Miller Anderson - Chameleon
DYEAR=2008
DGENRE=Blues/Rock
TTITLE0=City Blues
TTITLE1=By The Light
TTITLE2=Bad Mouth Mama
TTITLE3=Fog On The Highway
TTITLE4=Little Brother
TTITLE5=Me And My Woman
TTITLE6=Rich Man, Poor Man
TTITLE7=Eye On The Prize
TTITLE8=The Dreamer
TTITLE9=Sing Your Song
EXTD=
EXTT0=
EXTT1=Light, not Night!
EXTT2=
EXTT3=
EXTT4=
EXTT5=
EXTT6=
EXTT7=
EXTT8=
EXTT9=
PLAYORDER=
